<?xml version="1.0" encoding="iso-8859-1"?>
<!-- Generator: Adobe Illustrator 19.0.0, SVG Export Plug-In . SVG Version: 6.00 Build 0)  -->
<svg xmlns="http://www.w3.org/2000/svg" xmlns:xlink="http://www.w3.org/1999/xlink" version="1.1" id="Capa_1" x="0px" y="0px" viewBox="0 0 512 512" style="enable-background:new 0 0 512 512;" xml:space="preserve" width="512" height="512">
<path d="M504.5,376.829h-11.786L382.295,192.798c-6.287-10.478-19.773-14.405-30.703-8.94l-13.951,6.975l-63.769-63.769  c-4.704-4.703-11.221-7.209-17.853-6.861c-6.642,0.343-12.857,3.5-17.051,8.662L150.23,238.082l-0.144-0.062  c-9.83-4.213-21.28-1.259-27.845,7.183L19.864,376.829H7.5c-4.142,0-7.5,3.358-7.5,7.5s3.358,7.5,7.5,7.5h497  c4.142,0,7.5-3.358,7.5-7.5S508.642,376.829,504.5,376.829z M250.611,138.323c1.543-1.899,3.738-3.014,6.182-3.14  c2.437-0.127,4.743,0.757,6.473,2.487l64.449,64.449l-3.556,12.159c-1.163,3.976,1.117,8.141,5.093,9.304  c0.703,0.206,1.412,0.304,2.109,0.304c3.246,0,6.238-2.124,7.195-5.396l3.885-13.285l15.86-7.93  c3.962-1.98,8.853-0.557,11.132,3.242l105.788,176.313h-48.078l-107.548-93.52l9.752-33.341c1.163-3.976-1.117-8.141-5.093-9.304  c-3.976-1.162-8.141,1.117-9.304,5.093l-7.815,26.718l-51.949-45.173c-8.76-7.618-21.59-7.751-30.506-0.32l-34.081,28.4  l-26.035-11.158L250.611,138.323z M252.76,376.829l-51.65-110.679l33.174-27.645c3.233-2.695,7.885-2.646,11.061,0.116  l158.939,138.208H252.76z M134.081,254.411c2.381-3.061,6.534-4.132,10.096-2.604l42.108,18.046l49.922,106.976h-135.8l33.89-61.003  c2.012-3.621,0.707-8.187-2.914-10.198s-8.187-0.707-10.198,2.914l-37.938,68.287H38.867L134.081,254.411z"/>















</svg>
